solid Default
  facet normal 0.000000e+00 0.000000e+00 -1.000000e+00
    outer loop
      vertex -2.682973e+01 -2.580121e+01 0.000000e+00
      vertex -2.580122e+01 -2.682973e+01 0.000000e+00
      vertex -2.622725e+01 -2.828427e+01 0.000000e+00
    endloop
  endfacet
  facet normal 0.000000e+00 0.000000e+00 -1.000000e+00
    outer loop
      vertex -2.580122e+01 -2.682973e+01 0.000000e+00
      vertex -2.682973e+01 -2.580121e+01 0.000000e+00
      vertex -1.028519e+00 8.195639e-07 0.000000e+00
    endloop
  endfacet
  facet normal 0.000000e+00 0.000000e+00 -1.000000e+00
    outer loop
      vertex -2.580122e+01 -2.682973e+01 0.000000e+00
      vertex -1.028519e+00 8.195639e-07 0.000000e+00
      vertex -1.525879e-05 -1.028520e+00 0.000000e+00
    endloop
  endfacet
  facet normal 0.000000e+00 0.000000e+00 -1.000000e+00
    outer loop
      vertex -2.982704e+01 -2.468446e+01 0.000000e+00
      vertex -2.571297e+01 -3.085557e+01 0.000000e+00
      vertex -3.085558e+01 -2.571297e+01 0.000000e+00
    endloop
  endfacet
  facet normal 0.000000e+00 0.000000e+00 -1.000000e+00
    outer loop
      vertex -2.571297e+01 -3.085557e+01 0.000000e+00
      vertex -2.982704e+01 -2.468446e+01 0.000000e+00
      vertex -2.828429e+01 -2.622723e+01 0.000000e+00
    endloop
  endfacet
  facet normal 0.000000e+00 0.000000e+00 -1.000000e+00
    outer loop
      vertex -2.571297e+01 -3.085557e+01 0.000000e+00
      vertex -2.828429e+01 -2.622723e+01 0.000000e+00
      vertex -2.682973e+01 -2.580121e+01 0.000000e+00
    endloop
  endfacet
  facet normal 0.000000e+00 0.000000e+00 -1.000000e+00
    outer loop
      vertex -2.682973e+01 -2.580121e+01 0.000000e+00
      vertex -2.828429e+01 -2.622723e+01 0.000000e+00
      vertex -2.828429e+01 2.622723e+01 0.000000e+00
    endloop
  endfacet
  facet normal 0.000000e+00 0.000000e+00 -1.000000e+00
    outer loop
      vertex -2.571297e+01 -3.085557e+01 0.000000e+00
      vertex -2.682973e+01 -2.580121e+01 0.000000e+00
      vertex -2.622725e+01 -2.828427e+01 0.000000e+00
    endloop
  endfacet
  facet normal 0.000000e+00 0.000000e+00 -1.000000e+00
    outer loop
      vertex -2.571297e+01 -3.085557e+01 0.000000e+00
      vertex -2.622725e+01 -2.828427e+01 0.000000e+00
      vertex -2.468446e+01 -2.982705e+01 0.000000e+00
    endloop
  endfacet
  facet normal 0.000000e+00 0.000000e+00 -1.000000e+00
    outer loop
      vertex -2.571297e+01 3.085557e+01 0.000000e+00
      vertex -2.982704e+01 2.468446e+01 0.000000e+00
      vertex -3.085558e+01 2.571298e+01 0.000000e+00
    endloop
  endfacet
  facet normal 0.000000e+00 0.000000e+00 -1.000000e+00
    outer loop
      vertex -2.982704e+01 2.468446e+01 0.000000e+00
      vertex -2.571297e+01 3.085557e+01 0.000000e+00
      vertex -2.828429e+01 2.622723e+01 0.000000e+00
    endloop
  endfacet
  facet normal 0.000000e+00 0.000000e+00 -1.000000e+00
    outer loop
      vertex -2.828429e+01 2.622723e+01 0.000000e+00
      vertex -2.571297e+01 3.085557e+01 0.000000e+00
      vertex -2.682973e+01 2.580121e+01 0.000000e+00
    endloop
  endfacet
  facet normal 0.000000e+00 0.000000e+00 -1.000000e+00
    outer loop
      vertex -2.828429e+01 2.622723e+01 0.000000e+00
      vertex -2.682973e+01 2.580121e+01 0.000000e+00
      vertex -2.682973e+01 -2.580121e+01 0.000000e+00
    endloop
  endfacet
  facet normal 0.000000e+00 0.000000e+00 -1.000000e+00
    outer loop
      vertex -2.682973e+01 2.580121e+01 0.000000e+00
      vertex -2.571297e+01 3.085557e+01 0.000000e+00
      vertex -2.622725e+01 2.828427e+01 0.000000e+00
    endloop
  endfacet
  facet normal 0.000000e+00 0.000000e+00 -1.000000e+00
    outer loop
      vertex -2.622725e+01 2.828427e+01 0.000000e+00
      vertex -2.571297e+01 3.085557e+01 0.000000e+00
      vertex -2.468446e+01 2.982705e+01 0.000000e+00
    endloop
  endfacet
  facet normal 0.000000e+00 0.000000e+00 -1.000000e+00
    outer loop
      vertex 2.622722e+01 2.828427e+01 0.000000e+00
      vertex -2.580122e+01 2.682972e+01 0.000000e+00
      vertex -2.622725e+01 2.828427e+01 0.000000e+00
    endloop
  endfacet
  facet normal 0.000000e+00 0.000000e+00 -1.000000e+00
    outer loop
      vertex -2.580122e+01 2.682972e+01 0.000000e+00
      vertex 2.622722e+01 2.828427e+01 0.000000e+00
      vertex 2.580119e+01 2.682972e+01 0.000000e+00
    endloop
  endfacet
  facet normal 0.000000e+00 0.000000e+00 -1.000000e+00
    outer loop
      vertex -2.682973e+01 2.580121e+01 0.000000e+00
      vertex -2.580122e+01 2.682972e+01 0.000000e+00
      vertex -1.028519e+00 8.195639e-07 0.000000e+00
    endloop
  endfacet
  facet normal 0.000000e+00 0.000000e+00 -1.000000e+00
    outer loop
      vertex -2.580122e+01 2.682972e+01 0.000000e+00
      vertex -2.682973e+01 2.580121e+01 0.000000e+00
      vertex -2.622725e+01 2.828427e+01 0.000000e+00
    endloop
  endfacet
  facet normal 0.000000e+00 0.000000e+00 -1.000000e+00
    outer loop
      vertex -1.028519e+00 8.195639e-07 0.000000e+00
      vertex -2.580122e+01 2.682972e+01 0.000000e+00
      vertex -1.525879e-05 1.028519e+00 0.000000e+00
    endloop
  endfacet
  facet normal 0.000000e+00 0.000000e+00 -1.000000e+00
    outer loop
      vertex -1.028519e+00 8.195639e-07 0.000000e+00
      vertex -1.525879e-05 1.028519e+00 0.000000e+00
      vertex -1.525879e-05 -1.028520e+00 0.000000e+00
    endloop
  endfacet
  facet normal 0.000000e+00 0.000000e+00 -1.000000e+00
    outer loop
      vertex -1.525879e-05 -1.028520e+00 0.000000e+00
      vertex -1.525879e-05 1.028519e+00 0.000000e+00
      vertex 2.580119e+01 -2.682973e+01 0.000000e+00
    endloop
  endfacet
  facet normal 0.000000e+00 0.000000e+00 -1.000000e+00
    outer loop
      vertex 2.580119e+01 -2.682973e+01 0.000000e+00
      vertex -1.525879e-05 1.028519e+00 0.000000e+00
      vertex 1.028519e+00 8.195639e-07 0.000000e+00
    endloop
  endfacet
  facet normal 0.000000e+00 0.000000e+00 -1.000000e+00
    outer loop
      vertex 2.580119e+01 -2.682973e+01 0.000000e+00
      vertex 1.028519e+00 8.195639e-07 0.000000e+00
      vertex 2.682973e+01 -2.580121e+01 0.000000e+00
    endloop
  endfacet
  facet normal 0.000000e+00 0.000000e+00 -1.000000e+00
    outer loop
      vertex 2.580119e+01 -2.682973e+01 0.000000e+00
      vertex 2.682973e+01 -2.580121e+01 0.000000e+00
      vertex 2.622722e+01 -2.828427e+01 0.000000e+00
    endloop
  endfacet
  facet normal 0.000000e+00 0.000000e+00 -1.000000e+00
    outer loop
      vertex 2.622722e+01 -2.828427e+01 0.000000e+00
      vertex 2.571297e+01 -3.085557e+01 0.000000e+00
      vertex 2.468446e+01 -2.982705e+01 0.000000e+00
    endloop
  endfacet
  facet normal 0.000000e+00 0.000000e+00 -1.000000e+00
    outer loop
      vertex 2.571297e+01 -3.085557e+01 0.000000e+00
      vertex 2.622722e+01 -2.828427e+01 0.000000e+00
      vertex 3.085558e+01 -2.571297e+01 0.000000e+00
    endloop
  endfacet
  facet normal 0.000000e+00 0.000000e+00 -1.000000e+00
    outer loop
      vertex 3.085558e+01 -2.571297e+01 0.000000e+00
      vertex 2.622722e+01 -2.828427e+01 0.000000e+00
      vertex 2.828426e+01 -2.622723e+01 0.000000e+00
    endloop
  endfacet
  facet normal 0.000000e+00 0.000000e+00 -1.000000e+00
    outer loop
      vertex 2.828426e+01 -2.622723e+01 0.000000e+00
      vertex 2.622722e+01 -2.828427e+01 0.000000e+00
      vertex 2.682973e+01 -2.580121e+01 0.000000e+00
    endloop
  endfacet
  facet normal 0.000000e+00 0.000000e+00 -1.000000e+00
    outer loop
      vertex 2.828426e+01 -2.622723e+01 0.000000e+00
      vertex 2.682973e+01 -2.580121e+01 0.000000e+00
      vertex 2.682973e+01 2.580121e+01 0.000000e+00
    endloop
  endfacet
  facet normal 0.000000e+00 0.000000e+00 -1.000000e+00
    outer loop
      vertex 3.085558e+01 -2.571297e+01 0.000000e+00
      vertex 2.828426e+01 -2.622723e+01 0.000000e+00
      vertex 2.982704e+01 -2.468446e+01 0.000000e+00
    endloop
  endfacet
  facet normal 0.000000e+00 0.000000e+00 -1.000000e+00
    outer loop
      vertex 2.571297e+01 3.085557e+01 0.000000e+00
      vertex 2.622722e+01 2.828427e+01 0.000000e+00
      vertex 2.468446e+01 2.982705e+01 0.000000e+00
    endloop
  endfacet
  facet normal 0.000000e+00 0.000000e+00 -1.000000e+00
    outer loop
      vertex 2.622722e+01 2.828427e+01 0.000000e+00
      vertex 2.571297e+01 3.085557e+01 0.000000e+00
      vertex 3.085558e+01 2.571298e+01 0.000000e+00
    endloop
  endfacet
  facet normal 0.000000e+00 0.000000e+00 -1.000000e+00
    outer loop
      vertex 2.622722e+01 2.828427e+01 0.000000e+00
      vertex 3.085558e+01 2.571298e+01 0.000000e+00
      vertex 2.828426e+01 2.622723e+01 0.000000e+00
    endloop
  endfacet
  facet normal 0.000000e+00 0.000000e+00 -1.000000e+00
    outer loop
      vertex 2.622722e+01 2.828427e+01 0.000000e+00
      vertex 2.828426e+01 2.622723e+01 0.000000e+00
      vertex 2.682973e+01 2.580121e+01 0.000000e+00
    endloop
  endfacet
  facet normal 0.000000e+00 0.000000e+00 -1.000000e+00
    outer loop
      vertex 2.682973e+01 2.580121e+01 0.000000e+00
      vertex 2.828426e+01 2.622723e+01 0.000000e+00
      vertex 2.828426e+01 -2.622723e+01 0.000000e+00
    endloop
  endfacet
  facet normal 0.000000e+00 0.000000e+00 -1.000000e+00
    outer loop
      vertex 2.828426e+01 2.622723e+01 0.000000e+00
      vertex 3.085558e+01 2.571298e+01 0.000000e+00
      vertex 2.982704e+01 2.468446e+01 0.000000e+00
    endloop
  endfacet
  facet normal 0.000000e+00 0.000000e+00 -1.000000e+00
    outer loop
      vertex 2.580119e+01 2.682972e+01 0.000000e+00
      vertex 1.028519e+00 8.195639e-07 0.000000e+00
      vertex -1.525879e-05 1.028519e+00 0.000000e+00
    endloop
  endfacet
  facet normal 0.000000e+00 0.000000e+00 -1.000000e+00
    outer loop
      vertex 1.028519e+00 8.195639e-07 0.000000e+00
      vertex 2.580119e+01 2.682972e+01 0.000000e+00
      vertex 2.682973e+01 2.580121e+01 0.000000e+00
    endloop
  endfacet
  facet normal 0.000000e+00 0.000000e+00 -1.000000e+00
    outer loop
      vertex 2.682973e+01 2.580121e+01 0.000000e+00
      vertex 2.580119e+01 2.682972e+01 0.000000e+00
      vertex 2.622722e+01 2.828427e+01 0.000000e+00
    endloop
  endfacet
  facet normal 0.000000e+00 0.000000e+00 -1.000000e+00
    outer loop
      vertex -2.580122e+01 -2.682973e+01 0.000000e+00
      vertex 2.622722e+01 -2.828427e+01 0.000000e+00
      vertex -2.622725e+01 -2.828427e+01 0.000000e+00
    endloop
  endfacet
  facet normal 0.000000e+00 0.000000e+00 -1.000000e+00
    outer loop
      vertex 2.622722e+01 -2.828427e+01 0.000000e+00
      vertex -2.580122e+01 -2.682973e+01 0.000000e+00
      vertex 2.580119e+01 -2.682973e+01 0.000000e+00
    endloop
  endfacet
  facet normal -7.071068e-01 7.071068e-01 0.000000e+00
    outer loop
      vertex 2.468446e+01 2.982705e+01 3.000000e+00
      vertex 2.571297e+01 3.085557e+01 0.000000e+00
      vertex 2.468446e+01 2.982705e+01 0.000000e+00
    endloop
  endfacet
  facet normal -7.071068e-01 7.071068e-01 0.000000e+00
    outer loop
      vertex 2.571297e+01 3.085557e+01 0.000000e+00
      vertex 2.468446e+01 2.982705e+01 3.000000e+00
      vertex 2.571297e+01 3.085557e+01 3.000000e+00
    endloop
  endfacet
  facet normal 7.071068e-01 -7.071068e-01 0.000000e+00
    outer loop
      vertex 3.085558e+01 -2.571297e+01 3.000000e+00
      vertex 2.571297e+01 -3.085557e+01 0.000000e+00
      vertex 3.085558e+01 -2.571297e+01 0.000000e+00
    endloop
  endfacet
  facet normal 7.071068e-01 -7.071068e-01 0.000000e+00
    outer loop
      vertex 2.571297e+01 -3.085557e+01 0.000000e+00
      vertex 3.085558e+01 -2.571297e+01 3.000000e+00
      vertex 2.571297e+01 -3.085557e+01 3.000000e+00
    endloop
  endfacet
  facet normal -7.071068e-01 7.071068e-01 0.000000e+00
    outer loop
      vertex 2.828426e+01 -2.622723e+01 3.000000e+00
      vertex 2.982704e+01 -2.468446e+01 0.000000e+00
      vertex 2.828426e+01 -2.622723e+01 0.000000e+00
    endloop
  endfacet
  facet normal -7.071068e-01 7.071068e-01 0.000000e+00
    outer loop
      vertex 2.982704e+01 -2.468446e+01 0.000000e+00
      vertex 2.828426e+01 -2.622723e+01 3.000000e+00
      vertex 2.982704e+01 -2.468446e+01 3.000000e+00
    endloop
  endfacet
  facet normal -7.071068e-01 7.071068e-01 0.000000e+00
    outer loop
      vertex 2.468446e+01 -2.982705e+01 3.000000e+00
      vertex 2.622722e+01 -2.828427e+01 0.000000e+00
      vertex 2.468446e+01 -2.982705e+01 0.000000e+00
    endloop
  endfacet
  facet normal -7.071068e-01 7.071068e-01 0.000000e+00
    outer loop
      vertex 2.622722e+01 -2.828427e+01 0.000000e+00
      vertex 2.468446e+01 -2.982705e+01 3.000000e+00
      vertex 2.622722e+01 -2.828427e+01 3.000000e+00
    endloop
  endfacet
  facet normal 7.071068e-01 7.071068e-01 0.000000e+00
    outer loop
      vertex -2.622725e+01 -2.828427e+01 0.000000e+00
      vertex -2.468446e+01 -2.982705e+01 3.000000e+00
      vertex -2.468446e+01 -2.982705e+01 0.000000e+00
    endloop
  endfacet
  facet normal 7.071068e-01 7.071068e-01 0.000000e+00
    outer loop
      vertex -2.468446e+01 -2.982705e+01 3.000000e+00
      vertex -2.622725e+01 -2.828427e+01 0.000000e+00
      vertex -2.622725e+01 -2.828427e+01 3.000000e+00
    endloop
  endfacet
  facet normal -4.407585e-14 -1.000000e+00 0.000000e+00
    outer loop
      vertex 2.580119e+01 2.682972e+01 3.000000e+00
      vertex -2.580122e+01 2.682972e+01 0.000000e+00
      vertex 2.580119e+01 2.682972e+01 0.000000e+00
    endloop
  endfacet
  facet normal -4.407585e-14 -1.000000e+00 0.000000e+00
    outer loop
      vertex -2.580122e+01 2.682972e+01 0.000000e+00
      vertex 2.580119e+01 2.682972e+01 3.000000e+00
      vertex -2.580122e+01 2.682972e+01 3.000000e+00
    endloop
  endfacet
  facet normal 7.071068e-01 -7.071068e-01 0.000000e+00
    outer loop
      vertex -2.468446e+01 2.982705e+01 3.000000e+00
      vertex -2.622725e+01 2.828427e+01 0.000000e+00
      vertex -2.468446e+01 2.982705e+01 0.000000e+00
    endloop
  endfacet
  facet normal 7.071068e-01 -7.071068e-01 0.000000e+00
    outer loop
      vertex -2.622725e+01 2.828427e+01 0.000000e+00
      vertex -2.468446e+01 2.982705e+01 3.000000e+00
      vertex -2.622725e+01 2.828427e+01 3.000000e+00
    endloop
  endfacet
  facet normal 7.071068e-01 -7.071068e-01 0.000000e+00
    outer loop
      vertex 3.085558e+01 2.571298e+01 3.000000e+00
      vertex 2.982704e+01 2.468446e+01 0.000000e+00
      vertex 3.085558e+01 2.571298e+01 0.000000e+00
    endloop
  endfacet
  facet normal 7.071068e-01 -7.071068e-01 0.000000e+00
    outer loop
      vertex 2.982704e+01 2.468446e+01 0.000000e+00
      vertex 3.085558e+01 2.571298e+01 3.000000e+00
      vertex 2.982704e+01 2.468446e+01 3.000000e+00
    endloop
  endfacet
  facet normal -1.000000e+00 4.429790e-14 0.000000e+00
    outer loop
      vertex -2.828429e+01 2.622723e+01 3.000000e+00
      vertex -2.828429e+01 -2.622723e+01 0.000000e+00
      vertex -2.828429e+01 -2.622723e+01 3.000000e+00
    endloop
  endfacet
  facet normal -1.000000e+00 4.429790e-14 0.000000e+00
    outer loop
      vertex -2.828429e+01 -2.622723e+01 0.000000e+00
      vertex -2.828429e+01 2.622723e+01 3.000000e+00
      vertex -2.828429e+01 2.622723e+01 0.000000e+00
    endloop
  endfacet
  facet normal -7.071068e-01 7.071068e-01 0.000000e+00
    outer loop
      vertex -3.085558e+01 2.571298e+01 3.000000e+00
      vertex -2.571297e+01 3.085557e+01 0.000000e+00
      vertex -3.085558e+01 2.571298e+01 0.000000e+00
    endloop
  endfacet
  facet normal -7.071068e-01 7.071068e-01 0.000000e+00
    outer loop
      vertex -2.571297e+01 3.085557e+01 0.000000e+00
      vertex -3.085558e+01 2.571298e+01 3.000000e+00
      vertex -2.571297e+01 3.085557e+01 3.000000e+00
    endloop
  endfacet
  facet normal 7.071068e-01 -7.071068e-01 0.000000e+00
    outer loop
      vertex -2.468446e+01 -2.982705e+01 3.000000e+00
      vertex -2.571297e+01 -3.085557e+01 0.000000e+00
      vertex -2.468446e+01 -2.982705e+01 0.000000e+00
    endloop
  endfacet
  facet normal 7.071068e-01 -7.071068e-01 0.000000e+00
    outer loop
      vertex -2.571297e+01 -3.085557e+01 0.000000e+00
      vertex -2.468446e+01 -2.982705e+01 3.000000e+00
      vertex -2.571297e+01 -3.085557e+01 3.000000e+00
    endloop
  endfacet
  facet normal -7.071068e-01 -7.071068e-01 0.000000e+00
    outer loop
      vertex 2.468446e+01 2.982705e+01 3.000000e+00
      vertex 2.622722e+01 2.828427e+01 0.000000e+00
      vertex 2.622722e+01 2.828427e+01 3.000000e+00
    endloop
  endfacet
  facet normal -7.071068e-01 -7.071068e-01 0.000000e+00
    outer loop
      vertex 2.622722e+01 2.828427e+01 0.000000e+00
      vertex 2.468446e+01 2.982705e+01 3.000000e+00
      vertex 2.468446e+01 2.982705e+01 0.000000e+00
    endloop
  endfacet
  facet normal 7.071068e-01 7.071068e-01 0.000000e+00
    outer loop
      vertex -2.982704e+01 -2.468446e+01 0.000000e+00
      vertex -2.828429e+01 -2.622723e+01 3.000000e+00
      vertex -2.828429e+01 -2.622723e+01 0.000000e+00
    endloop
  endfacet
  facet normal 7.071068e-01 7.071068e-01 0.000000e+00
    outer loop
      vertex -2.828429e+01 -2.622723e+01 3.000000e+00
      vertex -2.982704e+01 -2.468446e+01 0.000000e+00
      vertex -2.982704e+01 -2.468446e+01 3.000000e+00
    endloop
  endfacet
  facet normal -7.071068e-01 -7.071068e-01 0.000000e+00
    outer loop
      vertex -3.085558e+01 -2.571297e+01 3.000000e+00
      vertex -2.571297e+01 -3.085557e+01 0.000000e+00
      vertex -2.571297e+01 -3.085557e+01 3.000000e+00
    endloop
  endfacet
  facet normal -7.071068e-01 -7.071068e-01 0.000000e+00
    outer loop
      vertex -2.571297e+01 -3.085557e+01 0.000000e+00
      vertex -3.085558e+01 -2.571297e+01 3.000000e+00
      vertex -3.085558e+01 -2.571297e+01 0.000000e+00
    endloop
  endfacet
  facet normal 7.071068e-01 7.071068e-01 0.000000e+00
    outer loop
      vertex 2.571297e+01 3.085557e+01 0.000000e+00
      vertex 3.085558e+01 2.571298e+01 3.000000e+00
      vertex 3.085558e+01 2.571298e+01 0.000000e+00
    endloop
  endfacet
  facet normal 7.071068e-01 7.071068e-01 0.000000e+00
    outer loop
      vertex 3.085558e+01 2.571298e+01 3.000000e+00
      vertex 2.571297e+01 3.085557e+01 0.000000e+00
      vertex 2.571297e+01 3.085557e+01 3.000000e+00
    endloop
  endfacet
  facet normal 4.407585e-14 1.000000e+00 -2.030018e-16
    outer loop
      vertex -2.580122e+01 -2.682973e+01 3.000000e+00
      vertex 2.580119e+01 -2.682973e+01 0.000000e+00
      vertex -2.580122e+01 -2.682973e+01 0.000000e+00
    endloop
  endfacet
  facet normal 4.407585e-14 1.000000e+00 -2.030018e-16
    outer loop
      vertex 2.580119e+01 -2.682973e+01 0.000000e+00
      vertex -2.580122e+01 -2.682973e+01 3.000000e+00
      vertex 2.580119e+01 -2.682973e+01 3.000000e+00
    endloop
  endfacet
  facet normal 0.000000e+00 0.000000e+00 1.000000e+00
    outer loop
      vertex -2.682973e+01 -2.580121e+01 3.000000e+00
      vertex -2.580122e+01 -2.682973e+01 3.000000e+00
      vertex -1.028519e+00 8.195639e-07 3.000000e+00
    endloop
  endfacet
  facet normal 0.000000e+00 0.000000e+00 1.000000e+00
    outer loop
      vertex -2.580122e+01 -2.682973e+01 3.000000e+00
      vertex -2.682973e+01 -2.580121e+01 3.000000e+00
      vertex -2.622725e+01 -2.828427e+01 3.000000e+00
    endloop
  endfacet
  facet normal 0.000000e+00 0.000000e+00 1.000000e+00
    outer loop
      vertex -1.028519e+00 8.195639e-07 3.000000e+00
      vertex -2.580122e+01 -2.682973e+01 3.000000e+00
      vertex -1.525879e-05 -1.028520e+00 3.000000e+00
    endloop
  endfacet
  facet normal 0.000000e+00 0.000000e+00 1.000000e+00
    outer loop
      vertex -2.571297e+01 -3.085557e+01 3.000000e+00
      vertex -2.982704e+01 -2.468446e+01 3.000000e+00
      vertex -3.085558e+01 -2.571297e+01 3.000000e+00
    endloop
  endfacet
  facet normal 0.000000e+00 0.000000e+00 1.000000e+00
    outer loop
      vertex -2.982704e+01 -2.468446e+01 3.000000e+00
      vertex -2.571297e+01 -3.085557e+01 3.000000e+00
      vertex -2.828429e+01 -2.622723e+01 3.000000e+00
    endloop
  endfacet
  facet normal 0.000000e+00 0.000000e+00 1.000000e+00
    outer loop
      vertex -2.828429e+01 -2.622723e+01 3.000000e+00
      vertex -2.571297e+01 -3.085557e+01 3.000000e+00
      vertex -2.682973e+01 -2.580121e+01 3.000000e+00
    endloop
  endfacet
  facet normal 0.000000e+00 0.000000e+00 1.000000e+00
    outer loop
      vertex -2.828429e+01 -2.622723e+01 3.000000e+00
      vertex -2.682973e+01 -2.580121e+01 3.000000e+00
      vertex -2.828429e+01 2.622723e+01 3.000000e+00
    endloop
  endfacet
  facet normal 0.000000e+00 0.000000e+00 1.000000e+00
    outer loop
      vertex -2.682973e+01 -2.580121e+01 3.000000e+00
      vertex -2.571297e+01 -3.085557e+01 3.000000e+00
      vertex -2.622725e+01 -2.828427e+01 3.000000e+00
    endloop
  endfacet
  facet normal 0.000000e+00 0.000000e+00 1.000000e+00
    outer loop
      vertex -2.622725e+01 -2.828427e+01 3.000000e+00
      vertex -2.571297e+01 -3.085557e+01 3.000000e+00
      vertex -2.468446e+01 -2.982705e+01 3.000000e+00
    endloop
  endfacet
  facet normal 0.000000e+00 0.000000e+00 1.000000e+00
    outer loop
      vertex 2.622722e+01 -2.828427e+01 3.000000e+00
      vertex -2.580122e+01 -2.682973e+01 3.000000e+00
      vertex -2.622725e+01 -2.828427e+01 3.000000e+00
    endloop
  endfacet
  facet normal 0.000000e+00 0.000000e+00 1.000000e+00
    outer loop
      vertex -2.580122e+01 -2.682973e+01 3.000000e+00
      vertex 2.622722e+01 -2.828427e+01 3.000000e+00
      vertex 2.580119e+01 -2.682973e+01 3.000000e+00
    endloop
  endfacet
  facet normal 0.000000e+00 0.000000e+00 1.000000e+00
    outer loop
      vertex 1.028519e+00 8.195639e-07 3.000000e+00
      vertex 2.580119e+01 2.682972e+01 3.000000e+00
      vertex -1.525879e-05 1.028519e+00 3.000000e+00
    endloop
  endfacet
  facet normal 0.000000e+00 0.000000e+00 1.000000e+00
    outer loop
      vertex 2.580119e+01 2.682972e+01 3.000000e+00
      vertex 1.028519e+00 8.195639e-07 3.000000e+00
      vertex 2.682973e+01 2.580121e+01 3.000000e+00
    endloop
  endfacet
  facet normal 0.000000e+00 0.000000e+00 1.000000e+00
    outer loop
      vertex 2.580119e+01 2.682972e+01 3.000000e+00
      vertex 2.682973e+01 2.580121e+01 3.000000e+00
      vertex 2.622722e+01 2.828427e+01 3.000000e+00
    endloop
  endfacet
  facet normal 0.000000e+00 0.000000e+00 1.000000e+00
    outer loop
      vertex 2.571297e+01 -3.085557e+01 3.000000e+00
      vertex 2.622722e+01 -2.828427e+01 3.000000e+00
      vertex 2.468446e+01 -2.982705e+01 3.000000e+00
    endloop
  endfacet
  facet normal 0.000000e+00 0.000000e+00 1.000000e+00
    outer loop
      vertex 2.622722e+01 -2.828427e+01 3.000000e+00
      vertex 2.571297e+01 -3.085557e+01 3.000000e+00
      vertex 3.085558e+01 -2.571297e+01 3.000000e+00
    endloop
  endfacet
  facet normal 0.000000e+00 0.000000e+00 1.000000e+00
    outer loop
      vertex 2.622722e+01 -2.828427e+01 3.000000e+00
      vertex 3.085558e+01 -2.571297e+01 3.000000e+00
      vertex 2.828426e+01 -2.622723e+01 3.000000e+00
    endloop
  endfacet
  facet normal 0.000000e+00 0.000000e+00 1.000000e+00
    outer loop
      vertex 2.622722e+01 -2.828427e+01 3.000000e+00
      vertex 2.828426e+01 -2.622723e+01 3.000000e+00
      vertex 2.682973e+01 -2.580121e+01 3.000000e+00
    endloop
  endfacet
  facet normal 0.000000e+00 0.000000e+00 1.000000e+00
    outer loop
      vertex 2.682973e+01 -2.580121e+01 3.000000e+00
      vertex 2.828426e+01 -2.622723e+01 3.000000e+00
      vertex 2.682973e+01 2.580121e+01 3.000000e+00
    endloop
  endfacet
  facet normal 0.000000e+00 0.000000e+00 1.000000e+00
    outer loop
      vertex 2.828426e+01 -2.622723e+01 3.000000e+00
      vertex 3.085558e+01 -2.571297e+01 3.000000e+00
      vertex 2.982704e+01 -2.468446e+01 3.000000e+00
    endloop
  endfacet
  facet normal 0.000000e+00 0.000000e+00 1.000000e+00
    outer loop
      vertex 2.622722e+01 2.828427e+01 3.000000e+00
      vertex 2.571297e+01 3.085557e+01 3.000000e+00
      vertex 2.468446e+01 2.982705e+01 3.000000e+00
    endloop
  endfacet
  facet normal 0.000000e+00 0.000000e+00 1.000000e+00
    outer loop
      vertex 2.571297e+01 3.085557e+01 3.000000e+00
      vertex 2.622722e+01 2.828427e+01 3.000000e+00
      vertex 3.085558e+01 2.571298e+01 3.000000e+00
    endloop
  endfacet
  facet normal 0.000000e+00 0.000000e+00 1.000000e+00
    outer loop
      vertex 3.085558e+01 2.571298e+01 3.000000e+00
      vertex 2.622722e+01 2.828427e+01 3.000000e+00
      vertex 2.828426e+01 2.622723e+01 3.000000e+00
    endloop
  endfacet
  facet normal 0.000000e+00 0.000000e+00 1.000000e+00
    outer loop
      vertex 2.828426e+01 2.622723e+01 3.000000e+00
      vertex 2.622722e+01 2.828427e+01 3.000000e+00
      vertex 2.682973e+01 2.580121e+01 3.000000e+00
    endloop
  endfacet
  facet normal 0.000000e+00 0.000000e+00 1.000000e+00
    outer loop
      vertex 2.828426e+01 2.622723e+01 3.000000e+00
      vertex 2.682973e+01 2.580121e+01 3.000000e+00
      vertex 2.828426e+01 -2.622723e+01 3.000000e+00
    endloop
  endfacet
  facet normal 0.000000e+00 0.000000e+00 1.000000e+00
    outer loop
      vertex 3.085558e+01 2.571298e+01 3.000000e+00
      vertex 2.828426e+01 2.622723e+01 3.000000e+00
      vertex 2.982704e+01 2.468446e+01 3.000000e+00
    endloop
  endfacet
  facet normal 0.000000e+00 0.000000e+00 1.000000e+00
    outer loop
      vertex -2.682973e+01 2.580121e+01 3.000000e+00
      vertex -2.580122e+01 2.682972e+01 3.000000e+00
      vertex -2.622725e+01 2.828427e+01 3.000000e+00
    endloop
  endfacet
  facet normal 0.000000e+00 0.000000e+00 1.000000e+00
    outer loop
      vertex -2.580122e+01 2.682972e+01 3.000000e+00
      vertex -2.682973e+01 2.580121e+01 3.000000e+00
      vertex -1.028519e+00 8.195639e-07 3.000000e+00
    endloop
  endfacet
  facet normal 0.000000e+00 0.000000e+00 1.000000e+00
    outer loop
      vertex -2.580122e+01 2.682972e+01 3.000000e+00
      vertex -1.028519e+00 8.195639e-07 3.000000e+00
      vertex -1.525879e-05 1.028519e+00 3.000000e+00
    endloop
  endfacet
  facet normal 0.000000e+00 0.000000e+00 1.000000e+00
    outer loop
      vertex -1.525879e-05 1.028519e+00 3.000000e+00
      vertex -1.028519e+00 8.195639e-07 3.000000e+00
      vertex -1.525879e-05 -1.028520e+00 3.000000e+00
    endloop
  endfacet
  facet normal 0.000000e+00 0.000000e+00 1.000000e+00
    outer loop
      vertex -1.525879e-05 1.028519e+00 3.000000e+00
      vertex -1.525879e-05 -1.028520e+00 3.000000e+00
      vertex 2.580119e+01 -2.682973e+01 3.000000e+00
    endloop
  endfacet
  facet normal 0.000000e+00 0.000000e+00 1.000000e+00
    outer loop
      vertex -1.525879e-05 1.028519e+00 3.000000e+00
      vertex 2.580119e+01 -2.682973e+01 3.000000e+00
      vertex 1.028519e+00 8.195639e-07 3.000000e+00
    endloop
  endfacet
  facet normal 0.000000e+00 0.000000e+00 1.000000e+00
    outer loop
      vertex 1.028519e+00 8.195639e-07 3.000000e+00
      vertex 2.580119e+01 -2.682973e+01 3.000000e+00
      vertex 2.682973e+01 -2.580121e+01 3.000000e+00
    endloop
  endfacet
  facet normal 0.000000e+00 0.000000e+00 1.000000e+00
    outer loop
      vertex 2.682973e+01 -2.580121e+01 3.000000e+00
      vertex 2.580119e+01 -2.682973e+01 3.000000e+00
      vertex 2.622722e+01 -2.828427e+01 3.000000e+00
    endloop
  endfacet
  facet normal 0.000000e+00 0.000000e+00 1.000000e+00
    outer loop
      vertex -2.580122e+01 2.682972e+01 3.000000e+00
      vertex 2.622722e+01 2.828427e+01 3.000000e+00
      vertex -2.622725e+01 2.828427e+01 3.000000e+00
    endloop
  endfacet
  facet normal 0.000000e+00 0.000000e+00 1.000000e+00
    outer loop
      vertex 2.622722e+01 2.828427e+01 3.000000e+00
      vertex -2.580122e+01 2.682972e+01 3.000000e+00
      vertex 2.580119e+01 2.682972e+01 3.000000e+00
    endloop
  endfacet
  facet normal 0.000000e+00 0.000000e+00 1.000000e+00
    outer loop
      vertex -2.982704e+01 2.468446e+01 3.000000e+00
      vertex -2.571297e+01 3.085557e+01 3.000000e+00
      vertex -3.085558e+01 2.571298e+01 3.000000e+00
    endloop
  endfacet
  facet normal 0.000000e+00 0.000000e+00 1.000000e+00
    outer loop
      vertex -2.571297e+01 3.085557e+01 3.000000e+00
      vertex -2.982704e+01 2.468446e+01 3.000000e+00
      vertex -2.828429e+01 2.622723e+01 3.000000e+00
    endloop
  endfacet
  facet normal 0.000000e+00 0.000000e+00 1.000000e+00
    outer loop
      vertex -2.571297e+01 3.085557e+01 3.000000e+00
      vertex -2.828429e+01 2.622723e+01 3.000000e+00
      vertex -2.682973e+01 2.580121e+01 3.000000e+00
    endloop
  endfacet
  facet normal 0.000000e+00 0.000000e+00 1.000000e+00
    outer loop
      vertex -2.682973e+01 2.580121e+01 3.000000e+00
      vertex -2.828429e+01 2.622723e+01 3.000000e+00
      vertex -2.682973e+01 -2.580121e+01 3.000000e+00
    endloop
  endfacet
  facet normal 0.000000e+00 0.000000e+00 1.000000e+00
    outer loop
      vertex -2.571297e+01 3.085557e+01 3.000000e+00
      vertex -2.682973e+01 2.580121e+01 3.000000e+00
      vertex -2.622725e+01 2.828427e+01 3.000000e+00
    endloop
  endfacet
  facet normal 0.000000e+00 0.000000e+00 1.000000e+00
    outer loop
      vertex -2.571297e+01 3.085557e+01 3.000000e+00
      vertex -2.622725e+01 2.828427e+01 3.000000e+00
      vertex -2.468446e+01 2.982705e+01 3.000000e+00
    endloop
  endfacet
  facet normal -7.071068e-01 -7.071068e-01 0.000000e+00
    outer loop
      vertex 2.468446e+01 -2.982705e+01 3.000000e+00
      vertex 2.571297e+01 -3.085557e+01 0.000000e+00
      vertex 2.571297e+01 -3.085557e+01 3.000000e+00
    endloop
  endfacet
  facet normal -7.071068e-01 -7.071068e-01 0.000000e+00
    outer loop
      vertex 2.571297e+01 -3.085557e+01 0.000000e+00
      vertex 2.468446e+01 -2.982705e+01 3.000000e+00
      vertex 2.468446e+01 -2.982705e+01 0.000000e+00
    endloop
  endfacet
  facet normal 7.071068e-01 7.071068e-01 0.000000e+00
    outer loop
      vertex -2.571297e+01 3.085557e+01 0.000000e+00
      vertex -2.468446e+01 2.982705e+01 3.000000e+00
      vertex -2.468446e+01 2.982705e+01 0.000000e+00
    endloop
  endfacet
  facet normal 7.071068e-01 7.071068e-01 0.000000e+00
    outer loop
      vertex -2.468446e+01 2.982705e+01 3.000000e+00
      vertex -2.571297e+01 3.085557e+01 0.000000e+00
      vertex -2.571297e+01 3.085557e+01 3.000000e+00
    endloop
  endfacet
  facet normal -7.071068e-01 -7.071068e-01 0.000000e+00
    outer loop
      vertex 2.828426e+01 2.622723e+01 3.000000e+00
      vertex 2.982704e+01 2.468446e+01 0.000000e+00
      vertex 2.982704e+01 2.468446e+01 3.000000e+00
    endloop
  endfacet
  facet normal -7.071068e-01 -7.071068e-01 0.000000e+00
    outer loop
      vertex 2.982704e+01 2.468446e+01 0.000000e+00
      vertex 2.828426e+01 2.622723e+01 3.000000e+00
      vertex 2.828426e+01 2.622723e+01 0.000000e+00
    endloop
  endfacet
  facet normal 1.000000e+00 -4.390932e-14 0.000000e+00
    outer loop
      vertex 2.828426e+01 2.622723e+01 0.000000e+00
      vertex 2.828426e+01 -2.622723e+01 3.000000e+00
      vertex 2.828426e+01 -2.622723e+01 0.000000e+00
    endloop
  endfacet
  facet normal 1.000000e+00 -4.390932e-14 0.000000e+00
    outer loop
      vertex 2.828426e+01 -2.622723e+01 3.000000e+00
      vertex 2.828426e+01 2.622723e+01 0.000000e+00
      vertex 2.828426e+01 2.622723e+01 3.000000e+00
    endloop
  endfacet
  facet normal -4.407585e-14 -1.000000e+00 0.000000e+00
    outer loop
      vertex 2.622722e+01 -2.828427e+01 3.000000e+00
      vertex -2.622725e+01 -2.828427e+01 0.000000e+00
      vertex 2.622722e+01 -2.828427e+01 0.000000e+00
    endloop
  endfacet
  facet normal -4.407585e-14 -1.000000e+00 0.000000e+00
    outer loop
      vertex -2.622725e+01 -2.828427e+01 0.000000e+00
      vertex 2.622722e+01 -2.828427e+01 3.000000e+00
      vertex -2.622725e+01 -2.828427e+01 3.000000e+00
    endloop
  endfacet
  facet normal -7.071068e-01 7.071068e-01 0.000000e+00
    outer loop
      vertex -3.085558e+01 -2.571297e+01 3.000000e+00
      vertex -2.982704e+01 -2.468446e+01 0.000000e+00
      vertex -3.085558e+01 -2.571297e+01 0.000000e+00
    endloop
  endfacet
  facet normal -7.071068e-01 7.071068e-01 0.000000e+00
    outer loop
      vertex -2.982704e+01 -2.468446e+01 0.000000e+00
      vertex -3.085558e+01 -2.571297e+01 3.000000e+00
      vertex -2.982704e+01 -2.468446e+01 3.000000e+00
    endloop
  endfacet
  facet normal -7.071068e-01 -7.071068e-01 0.000000e+00
    outer loop
      vertex -3.085558e+01 2.571298e+01 3.000000e+00
      vertex -2.982704e+01 2.468446e+01 0.000000e+00
      vertex -2.982704e+01 2.468446e+01 3.000000e+00
    endloop
  endfacet
  facet normal -7.071068e-01 -7.071068e-01 0.000000e+00
    outer loop
      vertex -2.982704e+01 2.468446e+01 0.000000e+00
      vertex -3.085558e+01 2.571298e+01 3.000000e+00
      vertex -3.085558e+01 2.571298e+01 0.000000e+00
    endloop
  endfacet
  facet normal 4.363176e-14 1.000000e+00 0.000000e+00
    outer loop
      vertex -2.622725e+01 2.828427e+01 3.000000e+00
      vertex 2.622722e+01 2.828427e+01 0.000000e+00
      vertex -2.622725e+01 2.828427e+01 0.000000e+00
    endloop
  endfacet
  facet normal 4.363176e-14 1.000000e+00 0.000000e+00
    outer loop
      vertex 2.622722e+01 2.828427e+01 0.000000e+00
      vertex -2.622725e+01 2.828427e+01 3.000000e+00
      vertex 2.622722e+01 2.828427e+01 3.000000e+00
    endloop
  endfacet
  facet normal 7.071068e-01 7.071068e-01 0.000000e+00
    outer loop
      vertex 2.982704e+01 -2.468446e+01 0.000000e+00
      vertex 3.085558e+01 -2.571297e+01 3.000000e+00
      vertex 3.085558e+01 -2.571297e+01 0.000000e+00
    endloop
  endfacet
  facet normal 7.071068e-01 7.071068e-01 0.000000e+00
    outer loop
      vertex 3.085558e+01 -2.571297e+01 3.000000e+00
      vertex 2.982704e+01 -2.468446e+01 0.000000e+00
      vertex 2.982704e+01 -2.468446e+01 3.000000e+00
    endloop
  endfacet
  facet normal 1.000000e+00 -4.429790e-14 0.000000e+00
    outer loop
      vertex -2.682973e+01 2.580121e+01 0.000000e+00
      vertex -2.682973e+01 -2.580121e+01 3.000000e+00
      vertex -2.682973e+01 -2.580121e+01 0.000000e+00
    endloop
  endfacet
  facet normal 1.000000e+00 -4.429790e-14 0.000000e+00
    outer loop
      vertex -2.682973e+01 -2.580121e+01 3.000000e+00
      vertex -2.682973e+01 2.580121e+01 0.000000e+00
      vertex -2.682973e+01 2.580121e+01 3.000000e+00
    endloop
  endfacet
  facet normal 7.071068e-01 -7.071068e-01 0.000000e+00
    outer loop
      vertex -2.828429e+01 2.622723e+01 3.000000e+00
      vertex -2.982704e+01 2.468446e+01 0.000000e+00
      vertex -2.828429e+01 2.622723e+01 0.000000e+00
    endloop
  endfacet
  facet normal 7.071068e-01 -7.071068e-01 0.000000e+00
    outer loop
      vertex -2.982704e+01 2.468446e+01 0.000000e+00
      vertex -2.828429e+01 2.622723e+01 3.000000e+00
      vertex -2.982704e+01 2.468446e+01 3.000000e+00
    endloop
  endfacet
  facet normal -1.000000e+00 4.390932e-14 0.000000e+00
    outer loop
      vertex 2.682973e+01 2.580121e+01 3.000000e+00
      vertex 2.682973e+01 -2.580121e+01 0.000000e+00
      vertex 2.682973e+01 -2.580121e+01 3.000000e+00
    endloop
  endfacet
  facet normal -1.000000e+00 4.390932e-14 0.000000e+00
    outer loop
      vertex 2.682973e+01 -2.580121e+01 0.000000e+00
      vertex 2.682973e+01 2.580121e+01 3.000000e+00
      vertex 2.682973e+01 2.580121e+01 0.000000e+00
    endloop
  endfacet
  facet normal 7.071068e-01 7.071068e-01 0.000000e+00
    outer loop
      vertex 1.028519e+00 8.195639e-07 0.000000e+00
      vertex 2.682973e+01 -2.580121e+01 3.000000e+00
      vertex 2.682973e+01 -2.580121e+01 0.000000e+00
    endloop
  endfacet
  facet normal 7.071068e-01 7.071068e-01 0.000000e+00
    outer loop
      vertex 2.682973e+01 -2.580121e+01 3.000000e+00
      vertex 1.028519e+00 8.195639e-07 0.000000e+00
      vertex 1.028519e+00 8.195639e-07 3.000000e+00
    endloop
  endfacet
  facet normal 7.071068e-01 -7.071068e-01 0.000000e+00
    outer loop
      vertex 2.682973e+01 2.580121e+01 3.000000e+00
      vertex 1.028519e+00 8.195639e-07 0.000000e+00
      vertex 2.682973e+01 2.580121e+01 0.000000e+00
    endloop
  endfacet
  facet normal 7.071068e-01 -7.071068e-01 0.000000e+00
    outer loop
      vertex 1.028519e+00 8.195639e-07 0.000000e+00
      vertex 2.682973e+01 2.580121e+01 3.000000e+00
      vertex 1.028519e+00 8.195639e-07 3.000000e+00
    endloop
  endfacet
  facet normal -7.071068e-01 7.071068e-01 0.000000e+00
    outer loop
      vertex -1.525879e-05 1.028519e+00 3.000000e+00
      vertex 2.580119e+01 2.682972e+01 0.000000e+00
      vertex -1.525879e-05 1.028519e+00 0.000000e+00
    endloop
  endfacet
  facet normal -7.071068e-01 7.071068e-01 0.000000e+00
    outer loop
      vertex 2.580119e+01 2.682972e+01 0.000000e+00
      vertex -1.525879e-05 1.028519e+00 3.000000e+00
      vertex 2.580119e+01 2.682972e+01 3.000000e+00
    endloop
  endfacet
  facet normal 7.071068e-01 7.071068e-01 0.000000e+00
    outer loop
      vertex -2.580122e+01 2.682972e+01 0.000000e+00
      vertex -1.525879e-05 1.028519e+00 3.000000e+00
      vertex -1.525879e-05 1.028519e+00 0.000000e+00
    endloop
  endfacet
  facet normal 7.071068e-01 7.071068e-01 0.000000e+00
    outer loop
      vertex -1.525879e-05 1.028519e+00 3.000000e+00
      vertex -2.580122e+01 2.682972e+01 0.000000e+00
      vertex -2.580122e+01 2.682972e+01 3.000000e+00
    endloop
  endfacet
  facet normal -7.071068e-01 -7.071068e-01 0.000000e+00
    outer loop
      vertex -2.682973e+01 2.580121e+01 3.000000e+00
      vertex -1.028519e+00 8.195639e-07 0.000000e+00
      vertex -1.028519e+00 8.195639e-07 3.000000e+00
    endloop
  endfacet
  facet normal -7.071068e-01 -7.071068e-01 0.000000e+00
    outer loop
      vertex -1.028519e+00 8.195639e-07 0.000000e+00
      vertex -2.682973e+01 2.580121e+01 3.000000e+00
      vertex -2.682973e+01 2.580121e+01 0.000000e+00
    endloop
  endfacet
  facet normal -7.071068e-01 7.071068e-01 0.000000e+00
    outer loop
      vertex -2.682973e+01 -2.580121e+01 3.000000e+00
      vertex -1.028519e+00 8.195639e-07 0.000000e+00
      vertex -2.682973e+01 -2.580121e+01 0.000000e+00
    endloop
  endfacet
  facet normal -7.071068e-01 7.071068e-01 0.000000e+00
    outer loop
      vertex -1.028519e+00 8.195639e-07 0.000000e+00
      vertex -2.682973e+01 -2.580121e+01 3.000000e+00
      vertex -1.028519e+00 8.195639e-07 3.000000e+00
    endloop
  endfacet
  facet normal 7.071068e-01 -7.071068e-01 0.000000e+00
    outer loop
      vertex -1.525879e-05 -1.028520e+00 3.000000e+00
      vertex -2.580122e+01 -2.682973e+01 0.000000e+00
      vertex -1.525879e-05 -1.028520e+00 0.000000e+00
    endloop
  endfacet
  facet normal 7.071068e-01 -7.071068e-01 0.000000e+00
    outer loop
      vertex -2.580122e+01 -2.682973e+01 0.000000e+00
      vertex -1.525879e-05 -1.028520e+00 3.000000e+00
      vertex -2.580122e+01 -2.682973e+01 3.000000e+00
    endloop
  endfacet
  facet normal -7.071068e-01 -7.071068e-01 0.000000e+00
    outer loop
      vertex -1.525879e-05 -1.028520e+00 3.000000e+00
      vertex 2.580119e+01 -2.682973e+01 0.000000e+00
      vertex 2.580119e+01 -2.682973e+01 3.000000e+00
    endloop
  endfacet
  facet normal -7.071068e-01 -7.071068e-01 0.000000e+00
    outer loop
      vertex 2.580119e+01 -2.682973e+01 0.000000e+00
      vertex -1.525879e-05 -1.028520e+00 3.000000e+00
      vertex -1.525879e-05 -1.028520e+00 0.000000e+00
    endloop
  endfacet
endsolid Default
